<svg width="400" height="400" viewBox="0 0 400 400" fill="none" xmlns="http://www.w3.org/2000/svg">
  <rect width="400" height="400" fill="#1f2937"/>
  <rect x="50" y="150" width="300" height="120" rx="10" fill="#374151" stroke="#6b7280" stroke-width="2"/>
  <rect x="60" y="160" width="280" height="100" fill="#1f2937"/>
  <rect x="80" y="180" width="20" height="15" fill="#6b7280"/>
  <rect x="110" y="180" width="20" height="15" fill="#6b7280"/>
  <rect x="140" y="180" width="20" height="15" fill="#6b7280"/>
  <rect x="170" y="180" width="20" height="15" fill="#6b7280"/>
  <rect x="200" y="180" width="20" height="15" fill="#6b7280"/>
  <rect x="230" y="180" width="20" height="15" fill="#6b7280"/>
  <rect x="260" y="180" width="20" height="15" fill="#6b7280"/>
  <rect x="290" y="180" width="20" height="15" fill="#6b7280"/>
  <rect x="80" y="210" width="20" height="15" fill="#6b7280"/>
  <rect x="110" y="210" width="20" height="15" fill="#6b7280"/>
  <rect x="140" y="210" width="20" height="15" fill="#6b7280"/>
  <rect x="170" y="210" width="20" height="15" fill="#6b7280"/>
  <rect x="200" y="210" width="20" height="15" fill="#6b7280"/>
  <rect x="230" y="210" width="20" height="15" fill="#6b7280"/>
  <rect x="260" y="210" width="20" height="15" fill="#6b7280"/>
  <rect x="290" y="210" width="20" height="15" fill="#6b7280"/>
  <text x="200" y="320" text-anchor="middle" fill="#9ca3af" font-family="Arial, sans-serif" font-size="14">Keyboard</text>
</svg>
